#!OML:ASF E:\emotionWalksFemale\Project 1\Capture day 1\Session 1\Female1.ASF
:FULLY-SPECIFIED
:DEGREES
2318
root 10.7694 14.8773 8.66321 365.455 1.52546 5.26871
lowerback 6.80309 4.61611 2.44835
upperback -4.01419 6.29041 -2.23458
thorax -7.51489 2.90062 -4.5285
lowerneck -5.83424 -7.32447 -9.01989
upperneck 8.78024 -9.56639 5.86869
head 4.29607 -4.73768 2.67551
rclavicle -9.59757e-015 -2.3059e-014
rhumerus -14.6078 3.36568 -56.8512
rradius 48.544
rwrist 20.1168
rhand -22.9781 -424.457
rfingers 7.12502
rthumb 3.46422 1534.41
lclavicle -9.59757e-015 -2.3059e-014
lhumerus -69.2569 21.456 8.47709
lradius 36.2616
lwrist 10.8112
lhand -33.1754 -30.395
lfingers 7.12502
lthumb -6.38358 -0.511213
rfemur 12.1375 -0.627609 22.1847
rtibia 42.3702
rfoot 4.28691 -20.1273
rtoes 1.83776
lfemur -31.3835 -4.79152 -26.8805
ltibia 43.3388
lfoot -22.5428 -11.3471
ltoes -30.3087
2319
root 10.7698 14.9115 8.82636 365.218 2.05272 5.54265
lowerback 6.88333 4.43969 1.98241
upperback -3.99689 5.99795 -2.35641
thorax -7.60202 2.77463 -4.37311
lowerneck -5.95712 -7.36388 -9.28783
upperneck 8.83374 -9.63349 6.31833
head 4.37298 -4.7554 2.84353
rclavicle 2.89294e-014 -1.66979e-014
rhumerus -16.0806 3.54818 -57.5696
rradius 48.7756
rwrist 21.8472
rhand -23.6312 -420.905
rfingers 7.12502
rthumb 2.83355 1530.87
lclavicle 2.89294e-014 -1.66979e-014
lhumerus -68.252 22.1733 10.3369
lradius 36.1177
lwrist 10.0234
lhand -31.8149 -30.4715
lfingers 7.12502
lthumb -5.07003 -0.552197
rfemur 10.2994 -2.08065 21.3711
rtibia 46.0022
rfoot 7.43951 -19.2704
rtoes 0.935373
lfemur -29.9803 -4.98443 -27.2662
ltibia 42.551
lfoot -22.4347 -11.8027
ltoes -28.3549
2320
root 10.7687 14.9417 8.9855 365.002 2.50312 5.78305
lowerback 7.07875 4.28766 1.53312
upperback -3.96941 5.73998 -2.47273
thorax -7.7384 2.66354 -4.2341
lowerneck -6.22983 -7.46535 -9.26104
upperneck 8.92032 -9.75769 6.35751
head 4.45511 -4.80841 2.83023
rclavicle -4.74785e-014 1.43125e-014
rhumerus -17.4265 3.68599 -58.3602
rradius 48.7254
rwrist 23.0444
rhand -24.3399 -417.653
rfingers 7.12502
rthumb 2.14907 1352.38
lclavicle -4.74785e-014 1.43125e-014
lhumerus -67.1323 22.8548 12.4529
lradius 36.044
lwrist 9.06872
lhand -30.6933 -30.0261
lfingers 7.12502
lthumb -3.98693 -0.0836603
rfemur 8.43715 -3.32541 20.641
rtibia 49.562
rfoot 10.7522 -18.2036
rtoes 0.444716
lfemur -28.5958 -5.12616 -27.6096
ltibia 41.7176
lfoot -22.3992 -12.1051
ltoes -26.9053
2321
root 10.7666 14.9658 9.14011 364.752 2.8651 6.07061
lowerback 7.25555 4.03943 0.916002
upperback -4.00169 5.32959 -2.62345
thorax -7.94883 2.48374 -4.01915
lowerneck -6.0502 -7.41388 -8.7404
upperneck 8.77075 -9.72395 6.11641
head 4.33897 -4.7904 2.68817
rclavicle 3.17931e-014 1.98785e-015
rhumerus -18.754 4.1432 -59.5022
rradius 48.2651
rwrist 24.0133
rhand -25.1713 -414.446
rfingers 7.12502
rthumb 1.34616 1355.58
lclavicle 3.17931e-014 1.98785e-015
lhumerus -66.2457 23.8422 13.8248
lradius 35.6039
lwrist 7.75197
lhand -29.9316 -29.6502
lfingers 7.12502
lthumb -3.25142 0.304745
rfemur 6.60553 -4.24506 19.8552
rtibia 53.0074
rfoot 13.1536 -17.3974
rtoes 5.50758
lfemur -27.1731 -5.32089 -27.9908
ltibia 40.8415
lfoot -22.2337 -12.4083
ltoes -25.1842
2322
root 10.7605 14.9875 9.29061 364.384 3.29484 6.42165
lowerback 7.54835 3.8774 0.304763
upperback -3.87659 5.03044 -2.7996
thorax -8.04177 2.36227 -3.84525
lowerneck -6.09217 -7.45697 -8.49126
upperneck 8.58637 -9.80034 6.15783
head 4.28489 -4.81726 2.65788
rclavicle -7.84454e-014 5.56597e-015
rhumerus -20.1287 3.78554 -60.3549
rradius 47.7767
rwrist 25.4367
rhand -26.1492 -411.403
rfingers 7.12502
rthumb 0.401689 1358.62
lclavicle -7.84454e-014 5.56597e-015
lhumerus -65.1733 26.3166 14.1124
lradius 34.3376
lwrist 5.03011
lhand -28.4936 -29.8275
lfingers 7.12502
lthumb -1.86265 0.144084
rfemur 4.85896 -4.99066 19.1066
rtibia 56.293
rfoot 15.5013 -16.98
rtoes 12.7092
lfemur -25.629 -5.63558 -28.4271
ltibia 39.9461
lfoot -22.0072 -12.5415
ltoes -24.2615
2323
root 10.7506 15.0104 9.44172 364.045 3.78876 6.8019
lowerback 7.78719 3.71851 -0.37865
upperback -3.71972 4.72814 -2.93558
thorax -8.07478 2.24587 -3.5789
lowerneck -6.2187 -7.44842 -8.60175
upperneck 8.5443 -9.80776 6.55077
head 4.31875 -4.80287 2.78989
rclavicle -8.24832e-014 4.37326e-015
rhumerus -21.467 2.81157 -61.0347
rradius 47.3121
rwrist 27.2073
rhand -27.2199 -408.617
rfingers 7.12502
rthumb -0.632447 1361.4
lclavicle -8.24832e-014 4.37326e-015
lhumerus -63.1904 25.8816 18.307
lradius 34.6962
lwrist 6.35237
lhand -27.487 -28.3625
lfingers 7.12502
lthumb -0.890471 1.61543
rfemur 3.04623 -5.66151 18.4302
rtibia 59.3954
rfoot 17.1356 -16.2396
rtoes 12.6418
lfemur -24.1061 -6.07553 -28.8819
ltibia 39.0698
lfoot -21.8255 -12.5232
ltoes -23.035
2324
root 10.741 15.032 9.59166 363.796 4.16706 7.22037
lowerback 7.95618 3.58315 -1.16873
upperback -3.58735 4.44629 -3.04125
thorax -8.09866 2.14582 -3.2178
lowerneck -6.46842 -7.41953 -8.80041
upperneck 8.71004 -9.77735 6.9296
head 4.43735 -4.77005 2.92706
rclavicle 2.34566e-014 -4.77083e-015
rhumerus -22.7028 1.76041 -61.6606
rradius 46.8517
rwrist 29.0682
rhand -28.5078 -405.783
rfingers 7.12502
rthumb -1.87636 1364.25
lclavicle 2.34566e-014 -4.77083e-015
lhumerus -61.957 28.4431 19.0271
lradius 33.3987
lwrist 3.0981
lhand -25.8466 -28.151
lfingers 7.12502
lthumb 0.693951 1.82764
rfemur 1.09004 -6.10604 17.735
rtibia 62.3407
rfoot 18.7142 -15.0753
rtoes 11.7181
lfemur -22.7137 -6.62371 -29.3678
ltibia 38.2378
lfoot -21.775 -12.373
ltoes -21.3204
2325
root 10.7323 15.0433 9.73482 363.529 4.53879 7.56354
lowerback 8.25017 3.47743 -1.78667
upperback -3.47779 4.21367 -3.19336
thorax -8.19633 2.05801 -3.01823
lowerneck -6.60254 -7.45547 -8.69504
upperneck 8.7236 -9.8326 6.97971
head 4.46543 -4.78838 2.91657
rclavicle -2.68949e-014 2.25621e-014
rhumerus -24.2137 1.43044 -62.6306
rradius 46.153
rwrist 27.9003
rhand -23.7468 -405.214
rfingers 7.12502
rthumb 2.72189 1364.82
lclavicle -2.68949e-014 2.25621e-014
lhumerus -58.7076 21.3238 29.9045
lradius 37.5932
lwrist 12.5458
lhand -25.8097 -24.5581
lfingers 7.12502
lthumb 0.729556 5.42037
rfemur -0.813708 -6.45403 17.1453
rtibia 65.103
rfoot 19.8311 -13.2559
rtoes 8.48422
lfemur -21.3857 -7.25619 -29.7747
ltibia 37.4606
lfoot -21.6572 -12.1937
ltoes -19.7305
2326
root 10.7229 15.0483 9.87579 363.29 5.00468 7.79416
lowerback 8.58285 3.35268 -2.15615
upperback -3.42773 3.97539 -3.38622
thorax -8.35702 1.95287 -3.00373
lowerneck -6.43325 -7.47579 -8.64628
upperneck 8.49626 -9.88858 7.17603
head 4.37987 -4.80916 2.97398
rclavicle 2.36476e-014 3.62782e-015
rhumerus -25.8974 1.00255 -63.5836
rradius 45.4393
rwrist 26.5503
rhand -19.6667 -404.662
rfingers 7.12502
rthumb 6.66159 1365.46
lclavicle 2.36476e-014 3.62782e-015
lhumerus -57.3848 28.7636 25.9729
lradius 32.845
lwrist 2.58208
lhand -22.6119 -27.5109
lfingers 7.12502
lthumb 3.81785 2.43466
rfemur -2.71266 -6.82193 16.7213
rtibia 67.6289
rfoot 20.1776 -10.3725
rtoes 7.13092
lfemur -20.1128 -7.95458 -30.071
ltibia 36.7589
lfoot -21.7097 -11.9189
ltoes -18.969
